<svg width="28" height="31" viewBox="0 0 28 31" fill="none" xmlns="http://www.w3.org/2000/svg">
<rect width="28" height="30.8155" rx="2" fill="#4DA1FF" fill-opacity="0.1"/>
<path fill-rule="evenodd" clip-rule="evenodd" d="M16.1258 10.1089V12.2367H18.0592L16.1258 10.1089ZM15.4268 12.2368V9.93047H10.8862C10.6934 9.93047 10.5369 10.1025 10.5369 10.3153V20.3089C10.5369 20.5218 10.6934 20.6935 10.8862 20.6935H17.8717C18.0645 20.6935 18.2209 20.5218 18.2209 20.3089V13.0062H16.1253H15.4268V12.2368ZM18.919 12.2379V12.2381V21.0779C18.919 21.2905 18.7625 21.4623 18.5697 21.4623H10.1872C9.99436 21.4623 9.83789 21.2905 9.83789 21.0779V9.54635C9.83789 9.33339 9.99436 9.16138 10.1872 9.16138H16.1248V9.16272V9.16253L18.9179 12.2367H18.919V12.2379Z" fill="#4DA1FF"/>
</svg>
