<svg width="191" height="50" viewBox="0 0 191 50" fill="none" xmlns="http://www.w3.org/2000/svg">
<path d="M65.5537 29.438L63.5713 31.5059V38H60.4097V11.75H63.5713V27.6265L65.2632 25.5928L71.0225 19.5088H74.8677L67.6729 27.2334L75.7051 38H71.9966L65.5537 29.438ZM76.8257 28.5835C76.8257 26.772 77.1789 25.1427 77.8853 23.6958C78.603 22.2489 79.5942 21.1323 80.8589 20.3462C82.1349 19.5601 83.5876 19.167 85.2168 19.167C87.7347 19.167 89.7684 20.0386 91.3179 21.7817C92.8787 23.5249 93.6592 25.8434 93.6592 28.7373V28.9595C93.6592 30.7596 93.3117 32.3774 92.6167 33.813C91.9331 35.2371 90.9476 36.348 89.6602 37.1455C88.3841 37.943 86.9144 38.3418 85.251 38.3418C82.7445 38.3418 80.7108 37.4702 79.1499 35.7271C77.6004 33.9839 76.8257 31.6768 76.8257 28.8057V28.5835ZM80.0044 28.9595C80.0044 31.0103 80.4772 32.6566 81.4229 33.8984C82.3799 35.1403 83.6559 35.7612 85.251 35.7612C86.8574 35.7612 88.1335 35.1346 89.0791 33.8813C90.0247 32.6167 90.4976 30.8507 90.4976 28.5835C90.4976 26.5555 90.0133 24.9149 89.0449 23.6616C88.0879 22.397 86.8118 21.7646 85.2168 21.7646C83.6559 21.7646 82.397 22.3856 81.4399 23.6274C80.4829 24.8693 80.0044 26.6466 80.0044 28.9595ZM100.129 19.5088L100.214 21.5596C101.57 19.9645 103.399 19.167 105.7 19.167C108.286 19.167 110.047 20.1582 110.981 22.1406C111.596 21.252 112.394 20.5342 113.374 19.9873C114.365 19.4404 115.533 19.167 116.877 19.167C120.933 19.167 122.995 21.3146 123.063 25.6099V38H119.902V25.7979C119.902 24.4762 119.6 23.4907 118.996 22.8413C118.392 22.1805 117.378 21.8501 115.954 21.8501C114.781 21.8501 113.806 22.2033 113.032 22.9097C112.257 23.6047 111.807 24.5446 111.682 25.7295V38H108.503V25.8833C108.503 23.1945 107.187 21.8501 104.555 21.8501C102.482 21.8501 101.063 22.7331 100.3 24.499V38H97.1382V19.5088H100.129ZM130.815 38H127.653V19.5088H130.815V38ZM127.397 14.604C127.397 14.0913 127.551 13.6584 127.858 13.3052C128.177 12.952 128.645 12.7754 129.26 12.7754C129.875 12.7754 130.342 12.952 130.661 13.3052C130.98 13.6584 131.14 14.0913 131.14 14.604C131.14 15.1167 130.98 15.5439 130.661 15.8857C130.342 16.2275 129.875 16.3984 129.26 16.3984C128.645 16.3984 128.177 16.2275 127.858 15.8857C127.551 15.5439 127.397 15.1167 127.397 14.604ZM144.36 22.3457C143.881 22.266 143.363 22.2261 142.805 22.2261C140.731 22.2261 139.324 23.109 138.583 24.875V38H135.422V19.5088H138.498L138.549 21.645C139.586 19.993 141.056 19.167 142.958 19.167C143.574 19.167 144.041 19.2467 144.36 19.4062V22.3457ZM144.763 36.3423C144.763 35.7954 144.922 35.3397 145.241 34.9751C145.572 34.6105 146.062 34.4282 146.711 34.4282C147.36 34.4282 147.85 34.6105 148.181 34.9751C148.522 35.3397 148.693 35.7954 148.693 36.3423C148.693 36.8664 148.522 37.305 148.181 37.6582C147.85 38.0114 147.36 38.188 146.711 38.188C146.062 38.188 145.572 38.0114 145.241 37.6582C144.922 37.305 144.763 36.8664 144.763 36.3423ZM158.615 29.438L156.633 31.5059V38H153.471V11.75H156.633V27.6265L158.325 25.5928L164.084 19.5088H167.929L160.734 27.2334L168.767 38H165.058L158.615 29.438ZM173.698 35.4194H184.516V38H169.836V35.6758L180.039 22.1235H169.99V19.5088H184.003V21.7476L173.698 35.4194Z" fill="#007BFF"/>
<g clip-path="url(#clip0)">
<path d="M46.9293 30.3988L41.0724 6.97113C40.9819 6.60951 40.7467 6.29203 40.4523 6.09984L31.6813 0.252488C31.2677 -0.0244642 30.8491 -0.000343138 30.859 0.0011217C30.6271 0.00141467 30.3951 0.0606919 30.2052 0.155711L12.624 8.94622C12.3285 9.09397 12.069 9.36087 11.9326 9.67952L3.14206 30.1909C2.9324 30.6799 3.00398 31.2709 3.35808 31.6999L18.009 49.4763C18.0172 49.4863 18.0266 49.4949 18.0351 49.5046C18.3098 49.821 18.7109 50 19.1414 50C19.1425 50 19.1435 49.9999 19.1446 49.9999H36.7208C37.2781 49.9999 37.7871 49.6935 38.0341 49.1941L46.8246 31.4177C46.8254 31.4161 46.826 31.4144 46.8266 31.4129C46.9864 31.086 47.0126 30.7158 46.9293 30.3988ZM32.3255 4.20365L37.0097 7.3264L32.3255 10.4491V4.20365ZM29.3953 3.83666V12.6986L22.2051 22.2855L15.3496 10.8596L29.3953 3.83666ZM13.4972 13.4674L19.8739 24.0952L7.12057 28.3463L13.4972 13.4674ZM18.1046 44.985L6.97663 31.4831L20.3301 27.0318L18.1046 44.985ZM35.8108 47.0793H20.7977L23.3202 26.7304L43.3921 31.7483L35.8108 47.0793ZM24.5658 24.0215L31.8818 14.2667L38.7338 9.69876L43.4977 28.7545L24.5658 24.0215Z" fill="#007BFF"/>
</g>
<defs>
<clipPath id="clip0">
<rect width="50" height="50" fill="white"/>
</clipPath>
</defs>
</svg>
