<svg width="123" height="121" viewBox="0 0 123 121" fill="none" xmlns="http://www.w3.org/2000/svg">
<g opacity="0.8">
<path fill-rule="evenodd" clip-rule="evenodd" d="M20.9354 118.969H112.423C117.152 118.969 121 115.543 121 111.333V34.9792C121 34.3021 120.7 33.6557 120.163 33.1797L85.8547 2.63806C85.32 2.15957 84.591 1.89233 83.8334 1.89233H20.9354C16.2066 1.89233 12.3584 5.31809 12.3584 9.52775V55.3403H18.0764V9.52775C18.0764 8.12284 19.3601 6.98261 20.9354 6.98261H82.6497L82.6501 6.98293H81.8736C81.3766 6.98293 80.9736 7.38588 80.9736 7.88293V34.9795C80.9736 36.3869 82.2545 37.5246 83.8326 37.5246H115.282V111.333C115.282 112.738 113.999 113.878 112.423 113.878H20.9354C19.3601 113.878 18.0764 112.738 18.0764 111.333V89.004H12.3584V111.333C12.3584 115.543 16.2066 118.969 20.9354 118.969ZM111.24 32.4343L86.6916 10.5808V32.4343H111.24Z" fill="#FF6D4A"/>
<path d="M120.163 33.1797L119.165 34.3001L119.168 34.3027L120.163 33.1797ZM85.8547 2.63806L84.8543 3.75579L84.8573 3.75843L85.8547 2.63806ZM12.3584 55.3403H10.8584V56.8403H12.3584V55.3403ZM18.0764 55.3403V56.8403H19.5764V55.3403H18.0764ZM82.6497 6.98261L83.6501 5.86487L83.2229 5.48261H82.6497V6.98261ZM82.6501 6.98293V8.48293H86.5754L83.6504 5.86519L82.6501 6.98293ZM115.282 37.5246H116.782V36.0246H115.282V37.5246ZM18.0764 89.004H19.5764V87.504H18.0764V89.004ZM12.3584 89.004V87.504H10.8584V89.004H12.3584ZM111.24 32.4343V33.9343H115.181L112.237 31.314L111.24 32.4343ZM86.6916 10.5808L87.689 9.46042L85.1916 7.2372V10.5808H86.6916ZM86.6916 32.4343H85.1916V33.9343H86.6916V32.4343ZM112.423 117.469H20.9354V120.469H112.423V117.469ZM119.5 111.333C119.5 114.555 116.492 117.469 112.423 117.469V120.469C117.812 120.469 122.5 116.531 122.5 111.333H119.5ZM119.5 34.9792V111.333H122.5V34.9792H119.5ZM119.168 34.3027C119.405 34.5123 119.5 34.7585 119.5 34.9792H122.5C122.5 33.8458 121.995 32.7991 121.157 32.0567L119.168 34.3027ZM84.8573 3.75843L119.165 34.3001L121.16 32.0594L86.8521 1.51769L84.8573 3.75843ZM83.8334 3.39233C84.2483 3.39233 84.6138 3.54052 84.8543 3.75578L86.855 1.52034C86.0263 0.778632 84.9337 0.392334 83.8334 0.392334V3.39233ZM20.9354 3.39233H83.8334V0.392334H20.9354V3.39233ZM13.8584 9.52775C13.8584 6.30575 16.8663 3.39233 20.9354 3.39233V0.392334C15.5469 0.392334 10.8584 4.33043 10.8584 9.52775H13.8584ZM13.8584 55.3403V9.52775H10.8584V55.3403H13.8584ZM18.0764 53.8403H12.3584V56.8403H18.0764V53.8403ZM16.5764 9.52775V55.3403H19.5764V9.52775H16.5764ZM20.9354 5.48261C18.7014 5.48261 16.5764 7.13426 16.5764 9.52775H19.5764C19.5764 9.11141 20.0187 8.48261 20.9354 8.48261V5.48261ZM82.6497 5.48261H20.9354V8.48261H82.6497V5.48261ZM83.6504 5.86519L83.6501 5.86487L81.6494 8.10036L81.6498 8.10068L83.6504 5.86519ZM81.8736 8.48293H82.6501V5.48293H81.8736V8.48293ZM82.4736 7.88293C82.4736 8.21431 82.205 8.48293 81.8736 8.48293V5.48293C80.5482 5.48293 79.4736 6.55745 79.4736 7.88293H82.4736ZM82.4736 34.9795V7.88293H79.4736V34.9795H82.4736ZM83.8326 36.0246C82.9131 36.0246 82.4736 35.3984 82.4736 34.9795H79.4736C79.4736 37.3755 81.5958 39.0246 83.8326 39.0246V36.0246ZM115.282 36.0246H83.8326V39.0246H115.282V36.0246ZM116.782 111.333V37.5246H113.782V111.333H116.782ZM112.423 115.378C114.657 115.378 116.782 113.727 116.782 111.333H113.782C113.782 111.75 113.34 112.378 112.423 112.378V115.378ZM20.9354 115.378H112.423V112.378H20.9354V115.378ZM16.5764 111.333C16.5764 113.727 18.7014 115.378 20.9354 115.378V112.378C20.0187 112.378 19.5764 111.75 19.5764 111.333H16.5764ZM16.5764 89.004V111.333H19.5764V89.004H16.5764ZM12.3584 90.504H18.0764V87.504H12.3584V90.504ZM13.8584 111.333V89.004H10.8584V111.333H13.8584ZM20.9354 117.469C16.8663 117.469 13.8584 114.555 13.8584 111.333H10.8584C10.8584 116.531 15.5469 120.469 20.9354 120.469V117.469ZM112.237 31.314L87.689 9.46042L85.6943 11.7012L110.243 33.5547L112.237 31.314ZM85.1916 10.5808V32.4343H88.1916V10.5808H85.1916ZM86.6916 33.9343H111.24V30.9343H86.6916V33.9343Z" fill="white"/>
</g>
<path fill-rule="evenodd" clip-rule="evenodd" d="M4.52368 88.1465H90.3289C91.722 88.1465 92.8526 87.1864 92.8526 85.9988V58.0784C92.8526 56.8907 91.722 55.9307 90.3289 55.9307H4.52368C3.13061 55.9307 2 56.8907 2 58.0784V85.9988C2 87.1864 3.13061 88.1465 4.52368 88.1465Z" fill="#FF6D4A" fill-opacity="0.1"/>
<path d="M90.3289 86.6465H4.52368V89.6465H90.3289V86.6465ZM91.3526 85.9988C91.3526 86.0923 91.312 86.2303 91.1414 86.3753C90.9674 86.5233 90.6849 86.6465 90.3289 86.6465V89.6465C92.3134 89.6465 94.3526 88.2335 94.3526 85.9988H91.3526ZM91.3526 58.0784V85.9988H94.3526V58.0784H91.3526ZM90.3289 57.4307C90.6849 57.4307 90.9674 57.5538 91.1414 57.7018C91.312 57.8469 91.3526 57.9849 91.3526 58.0784H94.3526C94.3526 55.8436 92.3134 54.4307 90.3289 54.4307V57.4307ZM4.52368 57.4307H90.3289V54.4307H4.52368V57.4307ZM3.5 58.0784C3.5 57.9849 3.54061 57.8469 3.7112 57.7018C3.88521 57.5538 4.16777 57.4307 4.52368 57.4307V54.4307C2.53924 54.4307 0.5 55.8436 0.5 58.0784H3.5ZM3.5 85.9988V58.0784H0.5V85.9988H3.5ZM4.52368 86.6465C4.16777 86.6465 3.88521 86.5233 3.7112 86.3753C3.54061 86.2303 3.5 86.0923 3.5 85.9988H0.5C0.5 88.2335 2.53924 89.6465 4.52368 89.6465V86.6465Z" fill="white"/>
<path d="M15.5566 73.6907C15.5566 73.0168 15.7812 72.47 16.2305 72.05C16.6895 71.6301 17.2607 71.4202 17.9443 71.4202C18.6377 71.4202 19.209 71.6301 19.6582 72.05C20.1172 72.47 20.3467 73.0168 20.3467 73.6907C20.3467 74.3547 20.1221 74.8967 19.6729 75.3167C19.2236 75.7268 18.6475 75.9319 17.9443 75.9319C17.251 75.9319 16.6797 75.7268 16.2305 75.3167C15.7812 74.8967 15.5566 74.3547 15.5566 73.6907ZM28.813 68.2561V75.7708H24.4184V54.4426H32.7387C34.3403 54.4426 35.7466 54.7356 36.9575 55.3215C38.1782 55.9075 39.1157 56.7424 39.77 57.8264C40.4243 58.9006 40.7514 60.1262 40.7514 61.5032C40.7514 63.593 40.0337 65.2434 38.5981 66.4543C37.1723 67.6555 35.1948 68.2561 32.6655 68.2561H28.813ZM28.813 64.6965H32.7387C33.9009 64.6965 34.7846 64.4231 35.3901 63.8762C36.0053 63.3293 36.313 62.5481 36.313 61.5325C36.313 60.4875 36.0053 59.6428 35.3901 58.9983C34.7749 58.3538 33.9253 58.0217 32.8413 58.0022H28.813V64.6965ZM43.8564 75.7708V54.4426H50.4189C52.2939 54.4426 53.9687 54.8674 55.4433 55.717C56.9277 56.5569 58.0849 57.7581 58.915 59.3206C59.7451 60.8733 60.1601 62.6409 60.1601 64.6233V65.6047C60.1601 67.5872 59.7499 69.3499 58.9296 70.8928C58.1191 72.4358 56.9716 73.6321 55.4873 74.4817C54.0029 75.3313 52.3281 75.761 50.4628 75.7708H43.8564ZM48.2509 58.0022V72.2405H50.3749C52.0937 72.2405 53.4072 71.679 54.3154 70.5559C55.2236 69.4329 55.6874 67.8264 55.707 65.7366V64.6086C55.707 62.4407 55.2578 60.8 54.3593 59.6868C53.4609 58.5637 52.1474 58.0022 50.4189 58.0022H48.2509ZM76.2729 67.0549H67.8354V75.7708H63.4408V54.4426H77.3276V58.0022H67.8354V63.51H76.2729V67.0549Z" fill="#FF6D4A"/>
</svg>
